<svg width="42" height="81" viewBox="0 0 42 81" fill="none" xmlns="http://www.w3.org/2000/svg">
<path d="M20.983 63.024C17.527 63.024 14.455 62.0213 11.767 60.016C9.12167 57.968 7.07367 55.216 5.623 51.76C4.215 48.2613 3.511 44.3787 3.511 40.112C3.511 35.8453 4.215 31.984 5.623 28.528C7.07367 25.0293 9.12167 22.2773 11.767 20.272C14.4123 18.224 17.4843 17.2 20.983 17.2C24.4817 17.2 27.5537 18.224 30.199 20.272C32.8443 22.2773 34.871 25.0293 36.279 28.528C37.7297 31.984 38.455 35.8453 38.455 40.112C38.455 44.3787 37.7297 48.2613 36.279 51.76C34.871 55.216 32.823 57.968 30.135 60.016C27.4897 62.0213 24.439 63.024 20.983 63.024ZM20.983 57.84C23.415 57.84 25.527 57.072 27.319 55.536C29.111 53.9573 30.4977 51.824 31.479 49.136C32.4603 46.448 32.951 43.44 32.951 40.112C32.951 36.784 32.4603 33.776 31.479 31.088C30.4977 28.4 29.111 26.288 27.319 24.752C25.527 23.1733 23.415 22.384 20.983 22.384C18.551 22.384 16.439 23.1733 14.647 24.752C12.855 26.288 11.4683 28.4 10.487 31.088C9.50567 33.776 9.015 36.784 9.015 40.112C9.015 43.44 9.50567 46.448 10.487 49.136C11.4683 51.824 12.855 53.9573 14.647 55.536C16.439 57.072 18.551 57.84 20.983 57.84Z" fill="black"/>
</svg>
