<svg width="34" height="81" viewBox="0 0 34 81" fill="none" xmlns="http://www.w3.org/2000/svg">
<path d="M3.0675 56.56C4.39017 55.2373 7.01417 52.592 10.9395 48.624C14.8648 44.6133 17.5955 41.776 19.1315 40.112C21.3075 37.7653 22.7795 35.9307 23.5475 34.608C24.3155 33.2853 24.6995 31.6853 24.6995 29.808C24.6995 28.528 24.3582 27.3333 23.6755 26.224C23.0355 25.072 22.0755 24.1547 20.7955 23.472C19.5582 22.7467 18.0648 22.384 16.3155 22.384C14.0115 22.384 12.1555 23.0667 10.7475 24.432C9.38217 25.7547 8.48617 27.2053 8.0595 28.784L3.0675 26.8C3.49417 25.4347 4.26217 24.0267 5.3715 22.576C6.48083 21.0827 7.97417 19.824 9.8515 18.8C11.7288 17.7333 13.9475 17.2 16.5075 17.2C19.1955 17.2 21.5635 17.776 23.6115 18.928C25.7022 20.08 27.3235 21.616 28.4755 23.536C29.6275 25.456 30.2035 27.5253 30.2035 29.744C30.2035 34.224 27.8568 38.8533 23.1635 43.632L10.0435 56.816H30.7155V62H3.0675V56.56Z" fill="black"/>
</svg>
