<svg width="35" height="81" viewBox="0 0 35 81" fill="none" xmlns="http://www.w3.org/2000/svg">
<path d="M17.079 63.024C15.2443 63.024 13.367 62.64 11.447 61.872C9.527 61.104 7.77767 59.9093 6.199 58.288C4.663 56.624 3.55367 54.5547 2.871 52.08L7.799 50.032C8.48167 52.5067 9.63367 54.4267 11.255 55.792C12.919 57.1573 14.8603 57.84 17.079 57.84C18.7003 57.84 20.215 57.4987 21.623 56.816C23.031 56.0907 24.1403 55.1093 24.951 53.872C25.8043 52.592 26.231 51.184 26.231 49.648C26.231 48.1547 25.8043 46.7893 24.951 45.552C24.1403 44.3147 23.0097 43.3547 21.559 42.672C20.151 41.9467 18.5937 41.584 16.887 41.584H13.111V36.528H16.503C18.8497 36.528 20.8123 35.8667 22.391 34.544C23.9697 33.1787 24.759 31.3867 24.759 29.168C24.759 27.12 23.991 25.4773 22.455 24.24C20.919 23.0027 19.0203 22.384 16.759 22.384C14.5403 22.384 12.791 22.96 11.511 24.112C10.2737 25.264 9.37767 26.672 8.823 28.336L3.831 26.224C4.599 23.92 6.071 21.8507 8.247 20.016C10.4657 18.1387 13.303 17.2 16.759 17.2C19.319 17.2 21.623 17.712 23.671 18.736C25.719 19.76 27.319 21.1893 28.471 23.024C29.6657 24.8587 30.263 26.9067 30.263 29.168C30.263 31.4293 29.687 33.3493 28.535 34.928C27.383 36.5067 25.9537 37.744 24.247 38.64V38.896C26.423 39.792 28.215 41.1787 29.623 43.056C31.031 44.8907 31.735 47.0667 31.735 49.584C31.735 52.144 31.0737 54.448 29.751 56.496C28.471 58.544 26.7003 60.144 24.439 61.296C22.2203 62.448 19.767 63.024 17.079 63.024Z" fill="black"/>
</svg>
