<svg width="37" height="81" viewBox="0 0 37 81" fill="none" xmlns="http://www.w3.org/2000/svg">
<path d="M18.0048 63.024C15.9568 63.024 13.9301 62.5973 11.9248 61.744C9.91942 60.848 8.14875 59.5253 6.61275 57.776C5.07675 55.984 3.98875 53.7867 3.34875 51.184L8.14875 49.264C8.78875 51.8667 9.96208 53.9573 11.6688 55.536C13.4181 57.072 15.4874 57.84 17.8768 57.84C20.7354 57.84 23.0608 56.9653 24.8528 55.216C26.6448 53.4667 27.5408 51.184 27.5408 48.368C27.5408 45.5947 26.6448 43.312 24.8528 41.52C23.1034 39.6853 20.8208 38.768 18.0048 38.768C16.4688 38.768 15.0181 39.1307 13.6528 39.856C12.2874 40.5387 11.1781 41.4987 10.3248 42.736L4.75675 40.304L7.63675 18.224H30.2928V23.408H12.1168L10.3888 36.656L10.6448 36.72C12.9061 34.8 15.6794 33.84 18.9648 33.84C21.4821 33.84 23.8074 34.4587 25.9408 35.696C28.1168 36.9333 29.8448 38.6613 31.1248 40.88C32.4048 43.0987 33.0448 45.5733 33.0448 48.304C33.0448 51.0347 32.3834 53.5307 31.0608 55.792C29.7808 58.0107 27.9888 59.7813 25.6848 61.104C23.3808 62.384 20.8208 63.024 18.0048 63.024Z" fill="black"/>
</svg>
