<svg width="36" height="81" viewBox="0 0 36 81" fill="none" xmlns="http://www.w3.org/2000/svg">
<path d="M18.0435 63.024C15.1422 63.024 12.5395 62.32 10.2355 60.912C7.97417 59.504 6.2035 57.6907 4.9235 55.472C3.68617 53.2107 3.0675 50.8427 3.0675 48.368C3.0675 46.0213 3.53683 43.7813 4.4755 41.648C5.45683 39.472 6.8435 37.0613 8.6355 34.416L20.0915 17.2L24.4435 20.208L13.4355 35.632L13.5635 35.76C15.0142 34.736 16.8915 34.224 19.1955 34.224C21.4142 34.224 23.5902 34.8427 25.7235 36.08C27.8568 37.3173 29.5848 39.024 30.9075 41.2C32.2728 43.3333 32.9555 45.7227 32.9555 48.368C32.9555 50.928 32.2728 53.3387 30.9075 55.6C29.5422 57.8187 27.7075 59.6107 25.4035 60.976C23.1422 62.3413 20.6888 63.024 18.0435 63.024ZM18.0435 57.84C19.7502 57.84 21.3288 57.4347 22.7795 56.624C24.2302 55.7707 25.3822 54.64 26.2355 53.232C27.0888 51.7813 27.5155 50.1813 27.5155 48.432C27.5155 46.7253 27.0888 45.168 26.2355 43.76C25.3822 42.3093 24.2302 41.1787 22.7795 40.368C21.3288 39.5147 19.7502 39.088 18.0435 39.088C16.3368 39.088 14.7368 39.5147 13.2435 40.368C11.7928 41.1787 10.6408 42.3093 9.7875 43.76C8.93417 45.168 8.5075 46.7253 8.5075 48.432C8.5075 50.1813 8.93417 51.7813 9.7875 53.232C10.6408 54.64 11.7928 55.7707 13.2435 56.624C14.7368 57.4347 16.3368 57.84 18.0435 57.84Z" fill="black"/>
</svg>
