<svg width="36" height="81" viewBox="0 0 36 81" fill="none" xmlns="http://www.w3.org/2000/svg">
<path d="M18.039 63.024C15.2657 63.024 12.7483 62.448 10.487 61.296C8.22567 60.144 6.455 58.5867 5.175 56.624C3.895 54.6187 3.255 52.4 3.255 49.968C3.255 47.4933 3.91633 45.3387 5.239 43.504C6.60433 41.6267 8.375 40.1547 10.551 39.088V38.832C8.84433 37.808 7.43633 36.464 6.327 34.8C5.26033 33.0933 4.727 31.3227 4.727 29.488C4.727 27.184 5.28167 25.0933 6.391 23.216C7.543 21.3387 9.12167 19.8667 11.127 18.8C13.175 17.7333 15.479 17.2 18.039 17.2C20.5563 17.2 22.8177 17.7333 24.823 18.8C26.871 19.8667 28.4497 21.3387 29.559 23.216C30.711 25.0933 31.287 27.184 31.287 29.488C31.287 31.3227 30.7323 33.0933 29.623 34.8C28.5563 36.464 27.191 37.808 25.527 38.832V39.088C27.703 40.1547 29.4523 41.6267 30.775 43.504C32.1403 45.3387 32.823 47.4933 32.823 49.968C32.823 52.4 32.1617 54.6187 30.839 56.624C29.559 58.5867 27.7883 60.144 25.527 61.296C23.2657 62.448 20.7697 63.024 18.039 63.024ZM18.039 36.528C20.3003 36.528 22.1563 35.8667 23.607 34.544C25.0577 33.2213 25.783 31.4933 25.783 29.36C25.783 27.2267 25.0363 25.5413 23.543 24.304C22.0923 23.024 20.2577 22.384 18.039 22.384C15.7777 22.384 13.9003 23.024 12.407 24.304C10.9563 25.5413 10.231 27.2267 10.231 29.36C10.231 31.4933 10.9563 33.2213 12.407 34.544C13.9003 35.8667 15.7777 36.528 18.039 36.528ZM18.039 57.84C20.6417 57.84 22.8177 57.0933 24.567 55.6C26.359 54.064 27.255 52.08 27.255 49.648C27.255 47.3013 26.359 45.3813 24.567 43.888C22.8177 42.352 20.6417 41.584 18.039 41.584C15.4363 41.584 13.239 42.352 11.447 43.888C9.655 45.3813 8.759 47.3013 8.759 49.648C8.759 52.08 9.655 54.064 11.447 55.6C13.239 57.0933 15.4363 57.84 18.039 57.84Z" fill="black"/>
</svg>
