<svg width="36" height="81" viewBox="0 0 36 81" fill="none" xmlns="http://www.w3.org/2000/svg">
<path d="M11.5795 60.016L22.5875 44.592L22.4595 44.464C20.9662 45.488 19.0675 46 16.7635 46C14.5448 46 12.3688 45.3813 10.2355 44.144C8.10217 42.9067 6.37417 41.2213 5.0515 39.088C3.72883 36.912 3.0675 34.5013 3.0675 31.856C3.0675 29.296 3.72883 26.9067 5.0515 24.688C6.41683 22.4267 8.23017 20.6133 10.4915 19.248C12.7955 17.8827 15.2915 17.2 17.9795 17.2C20.8808 17.2 23.4622 17.904 25.7235 19.312C28.0275 20.72 29.7982 22.5547 31.0355 24.816C32.3155 27.0347 32.9555 29.3813 32.9555 31.856C32.9555 34.2027 32.4648 36.464 31.4835 38.64C30.5448 40.7733 29.1795 43.1627 27.3875 45.808L15.9315 63.024L11.5795 60.016ZM17.9795 41.136C19.6862 41.136 21.2648 40.7307 22.7155 39.92C24.2088 39.0667 25.3822 37.936 26.2355 36.528C27.0888 35.0773 27.5155 33.4987 27.5155 31.792C27.5155 30.0427 27.0888 28.464 26.2355 27.056C25.3822 25.6053 24.2088 24.4747 22.7155 23.664C21.2648 22.8107 19.6862 22.384 17.9795 22.384C16.2728 22.384 14.6942 22.8107 13.2435 23.664C11.7928 24.4747 10.6408 25.6053 9.7875 27.056C8.93417 28.464 8.5075 30.0427 8.5075 31.792C8.5075 33.4987 8.93417 35.0773 9.7875 36.528C10.6408 37.936 11.7928 39.0667 13.2435 39.92C14.6942 40.7307 16.2728 41.136 17.9795 41.136Z" fill="black"/>
</svg>
