<svg width="35" height="81" viewBox="0 0 35 81" fill="none" xmlns="http://www.w3.org/2000/svg">
<path d="M17.5018 36.72C16.3498 36.72 15.3684 36.336 14.5578 35.568C13.7898 34.7573 13.4058 33.7973 13.4058 32.688C13.4058 31.536 13.7898 30.576 14.5578 29.808C15.3684 28.9973 16.3498 28.592 17.5018 28.592C18.6538 28.592 19.6138 28.9973 20.3818 29.808C21.1924 30.576 21.5978 31.536 21.5978 32.688C21.5978 33.7973 21.1924 34.7573 20.3818 35.568C19.6138 36.336 18.6538 36.72 17.5018 36.72ZM3.61375 42.416H31.3898V46.896H3.61375V42.416ZM17.5018 60.72C16.3498 60.72 15.3684 60.336 14.5578 59.568C13.7898 58.7573 13.4058 57.776 13.4058 56.624C13.4058 55.5147 13.7898 54.576 14.5578 53.808C15.3684 52.9973 16.3498 52.592 17.5018 52.592C18.6538 52.592 19.6138 52.9973 20.3818 53.808C21.1924 54.576 21.5978 55.5147 21.5978 56.624C21.5978 57.776 21.1924 58.7573 20.3818 59.568C19.6138 60.336 18.6538 60.72 17.5018 60.72Z" fill="black"/>
</svg>
